<?xml version="1.0" encoding="UTF-8"?>
<svg width="35px" height="35px" viewBox="0 0 35 35" version="1.1" xmlns="http://www.w3.org/2000/svg" xmlns:xlink="http://www.w3.org/1999/xlink">
    <title>pin_icon</title>
    <g id="pin_icon" stroke="none" stroke-width="1" fill="none" fill-rule="evenodd">
        <g id="Content/Plan/Trainingsplan" transform="translate(4.7396, 1.7986)" fill="#007AFF" fill-rule="nonzero">
            <path d="M12.7604167,0 C19.8078002,0 25.5208333,5.71303314 25.5208333,12.7604167 C25.5208333,19.9692857 19.8710895,26.8320596 13.6724195,31.1387528 C13.1260733,31.5183416 12.3908971,31.5188106 11.8454325,31.1376069 C9.70704109,29.6431692 7.17389612,27.4163078 5.02675059,24.8206108 C1.85532655,20.9866576 8.8817842e-16,16.9272668 8.8817842e-16,12.7604167 C8.8817842e-16,5.71303314 5.71303314,0 12.7604167,0 Z M12.7604167,6.67795139 C11.9550014,6.67795139 11.3020833,7.33086946 11.3020833,8.13628472 L11.3016667,10.6879514 L8.75,10.6883681 L8.57992753,10.6981793 C7.85464194,10.7824201 7.29166667,11.3988158 7.29166667,12.1467014 C7.29166667,12.9521166 7.94458474,13.6050347 8.75,13.6050347 L11.3016667,13.6049514 L11.3020833,16.1571181 L11.3118946,16.3271905 C11.3961354,17.0524761 12.0125311,17.6154514 12.7604167,17.6154514 C13.5658319,17.6154514 14.21875,16.9625333 14.21875,16.1571181 L14.2186667,13.6049514 L16.7708333,13.6050347 L16.9409058,13.5952234 C17.6661914,13.5109827 18.2291667,12.894587 18.2291667,12.1467014 C18.2291667,11.3412861 17.5762486,10.6883681 16.7708333,10.6883681 L14.2186667,10.6879514 L14.21875,8.13628472 L14.2089387,7.96621225 C14.1246979,7.24092667 13.5083023,6.67795139 12.7604167,6.67795139 Z" id="Combined-Shape"></path>
        </g>
    </g>
</svg>