<?xml version="1.0" encoding="UTF-8"?>
<svg width="398px" height="923px" viewBox="0 0 398 923" version="1.1" xmlns="http://www.w3.org/2000/svg" xmlns:xlink="http://www.w3.org/1999/xlink">
    <title>arrow</title>
    <g id="arrow" stroke="none" stroke-width="1" fill="none" fill-rule="evenodd">
        <path id="Line" d="M198.576641,14.9640453 C203.285872,63.5205738 198.546145,108.281904 184.336099,149.207483 C184.127295,149.808847 183.914695,150.415538 183.697116,151.0307 L183.477833,151.648803 C180.604453,159.723869 176.823166,169.407662 169.538567,187.607034 C162.59171,204.962614 158.798305,214.466011 155.665873,222.469297 L155.413291,223.11505 C155.036444,224.079125 154.668377,225.02355 154.304606,225.959753 L154.006731,226.727001 L153.710237,227.491958 L153.636264,227.683004 L153.266875,228.638176 C153.168419,228.893022 153.069963,229.148072 152.971415,229.403561 L152.675404,230.171578 C151.687166,232.737585 150.680533,235.370912 149.563516,238.30599 C142.422518,257.069701 136.350533,274.082395 131.122753,290.237832 C107.595977,362.942748 103.29306,412.621994 123.567333,433.89544 C147.006288,458.489531 175.21998,476.124017 212.377201,491.730285 C221.240617,495.452975 230.493735,499.02841 241.703044,503.124806 C244.381546,504.103653 249.886645,506.081767 255.381995,508.052058 L256.29731,508.380195 L257.0639,508.65496 C263.183265,510.848109 268.926702,512.90231 270.30935,513.402676 C302.314288,524.984939 320.506535,533.195204 336.20049,544.468937 C356.013876,558.701859 368.26869,576.434044 373.099641,599.979764 C385.291028,659.399742 349.93931,745.693059 267.469779,859.462749 L254.024,877.508 L280.266485,865.850133 C282.470895,864.870741 285.040802,865.8058 286.112695,867.938297 L286.205961,868.135439 C287.215032,870.40665 286.191865,873.065844 283.920655,874.074915 L241.97984,892.708705 L234.668923,895.956855 L235.689525,888.022224 L241.544455,842.503329 C241.861515,840.038356 244.1168,838.297128 246.581774,838.614188 C249.046748,838.931249 250.787975,841.186534 250.470915,843.651507 L246.807,872.132 L260.217731,854.133177 C341.281622,742.301973 375.816756,658.001933 364.283294,601.788642 C359.927614,580.559356 348.996301,564.74222 330.949699,551.778465 C316.125174,541.129286 298.509565,533.17926 267.246721,521.865554 C264.533432,520.883642 244.60426,513.767194 238.61385,511.578023 C227.281947,507.436826 217.903459,503.812948 208.892064,500.028105 C170.683938,483.980451 141.458337,465.713488 117.052211,440.10456 C104.262243,426.684268 99.8474304,404.889166 102.378229,375.669883 C104.497215,351.205167 111.430057,321.861603 122.559911,287.466959 C127.839312,271.151997 133.960753,254.000735 141.152071,235.104805 C142.442525,231.714004 143.586112,228.724639 144.723093,225.779243 L145.019639,225.011641 C145.069069,224.883795 145.118509,224.755974 145.167972,224.628147 L145.763323,223.092109 L146.063178,222.320383 L146.307496,221.692531 C146.389207,221.482688 146.471206,221.272246 146.553542,221.061079 L146.801611,220.42528 C150.040928,212.128385 153.86735,202.53966 161.183045,184.262599 C169.159037,164.335893 172.90436,154.692979 175.834021,146.25542 C189.604312,106.596355 194.206315,63.1356762 189.618672,15.8328297 C189.378763,13.3591547 191.189589,11.159361 193.663264,10.9194529 C196.136939,10.6795447 198.336733,12.4903704 198.576641,14.9640453 Z" fill="#000000" fill-rule="nonzero"></path>
    </g>
</svg>